# xmcd
#
# Track frame offsets:
#	150
#	19934
#	39138
#	57015
#	109982
#	119364
#	136344
#	151728
#	178447
#	192808
#
# Disc length: 2912 seconds
#
# Revision: 0
# Processed by: cddbd v1.5.1PL2 Copyright (c) Steve Scherf et al.
# Submitted via: dBpowerAMP V4.0
#
DISCID=800b5e0a
DTITLE=Mike Vernon - Bring It Back Home
DYEAR=1971
DGENRE=Blues
TTITLE0=Let's Try It Again
TTITLE1=Move Away
TTITLE2=Mississippi Joe
TTITLE3=Brown Alligator
TTITLE4=Come Back Baby
TTITLE5=War Pains
TTITLE6=Dark Road Blues
TTITLE7=(She Said) She Didn't Have Time
TTITLE8=Ain't That Lovin'  You Baby
TTITLE9=My Say Blues
EXTD=
EXTT0=
EXTT1=
EXTT2=
EXTT3=
EXTT4=
EXTT5=
EXTT6=
EXTT7=
EXTT8=
EXTT9=
PLAYORDER=
